HIERARCHY
ROOT Hips
{
	OFFSET 0.000000 103.266502 0.000000
	CHANNELS 6 Xposition Yposition Zposition Xrotation Yrotation Zrotation 
	JOINT Spine
	{
		OFFSET -0.002400 12.777504 0.315300
		CHANNELS 3 Xrotation Yrotation Zrotation
		JOINT Spine1
		{
			OFFSET -0.002067 5.816869 0.032633
			CHANNELS 3 Xrotation Yrotation Zrotation
			JOINT Spine1_split
			{
				OFFSET -0.002067 5.816869 0.032633
				CHANNELS 3 Xrotation Yrotation Zrotation
				JOINT Spine2
				{
					OFFSET -0.002067 5.816869 0.032633
					CHANNELS 3 Xrotation Yrotation Zrotation
					JOINT Neck
					{
						OFFSET -0.003700 21.199493 -0.826900
						CHANNELS 3 Xrotation Yrotation Zrotation
						JOINT Head
						{
							OFFSET 0.000000 20.442200 4.834800
							CHANNELS 3 Xrotation Yrotation Zrotation
							JOINT HeadTop_End
							{
								OFFSET 0.000000 34.668396 4.968400
								CHANNELS 3 Xrotation Yrotation Zrotation
								End Site
								{
									OFFSET 0.000000 0.000000 0.000000
								}
							}
						}
					}
					JOINT LeftShoulder
					{
						OFFSET 3.288150 8.794197 -1.372250
						CHANNELS 3 Xrotation Yrotation Zrotation
						JOINT LeftShoulder_split
						{
							OFFSET 3.288150 8.794197 -1.372250
							CHANNELS 3 Xrotation Yrotation Zrotation
							JOINT LeftArm
							{
								OFFSET 11.953299 -2.279007 -0.146200
								CHANNELS 3 Xrotation Yrotation Zrotation
								JOINT LeftForeArm
								{
									OFFSET 18.448900 0.000000 0.000000
									CHANNELS 3 Xrotation Yrotation Zrotation
									JOINT LeftHand
									{
										OFFSET 29.527798 0.000000 0.000000
										CHANNELS 3 Xrotation Yrotation Zrotation
										JOINT LeftHandThumb1
										{
											OFFSET 10.739754 -2.369614 9.225399
											CHANNELS 3 Xrotation Yrotation Zrotation
											JOINT LeftHandThumb2
											{
												OFFSET 4.926170 -2.844131 2.844125
												CHANNELS 3 Xrotation Yrotation Zrotation
												JOINT LeftHandThumb3
												{
													OFFSET 4.614891 -2.664413 2.664409
													CHANNELS 3 Xrotation Yrotation Zrotation
													JOINT LeftHandThumb4
													{
														OFFSET 4.432465 -2.559082 2.559083
														CHANNELS 3 Xrotation Yrotation Zrotation
														End Site
														{
															OFFSET 0.000000 0.000000 0.000000
														}
													}
												}
											}
										}
										JOINT LeftHandIndex1
										{
											OFFSET 26.467674 0.187653 6.405298
											CHANNELS 3 Xrotation Yrotation Zrotation
											JOINT LeftHandIndex2
											{
												OFFSET 8.792900 0.000000 0.000000
												CHANNELS 3 Xrotation Yrotation Zrotation
												JOINT LeftHandIndex3
												{
													OFFSET 10.075203 0.000000 0.000000
													CHANNELS 3 Xrotation Yrotation Zrotation
													End Site
													{
														OFFSET 0.000000 0.000000 0.000000
													}
												}
											}
										}
										JOINT LeftHandMiddle1
										{
											OFFSET 25.764404 0.000000 0.000000
											CHANNELS 3 Xrotation Yrotation Zrotation
											JOINT LeftHandMiddle2
											{
												OFFSET 9.393974 0.000000 0.000000
												CHANNELS 3 Xrotation Yrotation Zrotation
												JOINT LeftHandMiddle3
												{
													OFFSET 10.771950 0.000000 0.000000
													CHANNELS 3 Xrotation Yrotation Zrotation
													End Site
													{
														OFFSET 0.000000 0.000000 0.000000
													}
												}
											}
										}
										JOINT LeftHandRing1
										{
											OFFSET 24.660927 0.144547 -6.225808
											CHANNELS 3 Xrotation Yrotation Zrotation
											JOINT LeftHandRing2
											{
												OFFSET 9.393799 0.000000 0.000000
												CHANNELS 3 Xrotation Yrotation Zrotation
												JOINT LeftHandRing3
												{
													OFFSET 9.928497 0.000000 0.000000
													CHANNELS 3 Xrotation Yrotation Zrotation
													End Site
													{
														OFFSET 0.000000 0.000000 0.000000
													}
												}
											}
										}
										JOINT LeftHandPinky1
										{
											OFFSET 23.655350 0.125290 -12.815412
											CHANNELS 3 Xrotation Yrotation Zrotation
											JOINT LeftHandPinky2
											{
												OFFSET 8.425102 0.000000 0.000000
												CHANNELS 3 Xrotation Yrotation Zrotation
												JOINT LeftHandPinky3
												{
													OFFSET 8.147003 0.000000 0.000000
													CHANNELS 3 Xrotation Yrotation Zrotation
													End Site
													{
														OFFSET 0.000000 0.000000 0.000000
													}
												}
											}
										}
									}
								}
							}
						}
					}
					JOINT RightShoulder
					{
						OFFSET -3.249400 8.794197 -1.372250
						CHANNELS 3 Xrotation Yrotation Zrotation
						JOINT RightShoulder_split
						{
							OFFSET -3.249400 8.794197 -1.372250
							CHANNELS 3 Xrotation Yrotation Zrotation
							JOINT RightArm
							{
								OFFSET -11.953299 -2.279007 -0.146200
								CHANNELS 3 Xrotation Yrotation Zrotation
								JOINT RightForeArm
								{
									OFFSET -18.448900 0.000000 0.000000
									CHANNELS 3 Xrotation Yrotation Zrotation
									JOINT RightHand
									{
										OFFSET -29.527802 0.000000 0.000000
										CHANNELS 3 Xrotation Yrotation Zrotation
										JOINT RightHandThumb1
										{
											OFFSET -10.739754 -2.369614 9.225399
											CHANNELS 3 Xrotation Yrotation Zrotation
											JOINT RightHandThumb2
											{
												OFFSET -4.926170 -2.844131 2.844125
												CHANNELS 3 Xrotation Yrotation Zrotation
												JOINT RightHandThumb3
												{
													OFFSET -4.614891 -2.664413 2.664409
													CHANNELS 3 Xrotation Yrotation Zrotation
													JOINT RightHandThumb4
													{
														OFFSET -4.432465 -2.559082 2.559083
														CHANNELS 3 Xrotation Yrotation Zrotation
														End Site
														{
															OFFSET 0.000000 0.000000 0.000000
														}
													}
												}
											}
										}
										JOINT RightHandIndex1
										{
											OFFSET -26.467674 0.187653 6.405298
											CHANNELS 3 Xrotation Yrotation Zrotation
											JOINT RightHandIndex2
											{
												OFFSET -8.792900 0.000000 0.000000
												CHANNELS 3 Xrotation Yrotation Zrotation
												JOINT RightHandIndex3
												{
													OFFSET -10.075203 0.000000 0.000000
													CHANNELS 3 Xrotation Yrotation Zrotation
													End Site
													{
														OFFSET 0.000000 0.000000 0.000000
													}
												}
											}
										}
										JOINT RightHandMiddle1
										{
											OFFSET -25.764404 0.000000 0.000000
											CHANNELS 3 Xrotation Yrotation Zrotation
											JOINT RightHandMiddle2
											{
												OFFSET -9.393974 0.000000 0.000000
												CHANNELS 3 Xrotation Yrotation Zrotation
												JOINT RightHandMiddle3
												{
													OFFSET -10.771950 0.000000 0.000000
													CHANNELS 3 Xrotation Yrotation Zrotation
													End Site
													{
														OFFSET 0.000000 0.000000 0.000000
													}
												}
											}
										}
										JOINT RightHandRing1
										{
											OFFSET -24.660927 0.144547 -6.225808
											CHANNELS 3 Xrotation Yrotation Zrotation
											JOINT RightHandRing2
											{
												OFFSET -9.393799 0.000000 0.000000
												CHANNELS 3 Xrotation Yrotation Zrotation
												JOINT RightHandRing3
												{
													OFFSET -9.928497 0.000000 0.000000
													CHANNELS 3 Xrotation Yrotation Zrotation
													End Site
													{
														OFFSET 0.000000 0.000000 0.000000
													}
												}
											}
										}
										JOINT RightHandPinky1
										{
											OFFSET -23.655350 0.125290 -12.815412
											CHANNELS 3 Xrotation Yrotation Zrotation
											JOINT RightHandPinky2
											{
												OFFSET -8.425102 0.000000 0.000000
												CHANNELS 3 Xrotation Yrotation Zrotation
												JOINT RightHandPinky3
												{
													OFFSET -8.147003 0.000000 0.000000
													CHANNELS 3 Xrotation Yrotation Zrotation
													End Site
													{
														OFFSET 0.000000 0.000000 0.000000
													}
												}
											}
										}
									}
								}
							}
						}
					}
				}
			}
		}
	}
	JOINT LeftUpLeg
	{
		OFFSET 11.394100 -6.187798 -0.413800
		CHANNELS 3 Xrotation Yrotation Zrotation
		JOINT LeftLeg
		{
			OFFSET 0.430247 -32.302673 3.732800
			CHANNELS 3 Xrotation Yrotation Zrotation
			JOINT LeftFoot
			{
				OFFSET -0.430247 -48.264931 -6.423300
				CHANNELS 3 Xrotation Yrotation Zrotation
				JOINT LeftToeBase
				{
					OFFSET 4.230900 -16.068199 23.438400
					CHANNELS 3 Xrotation Yrotation Zrotation
					JOINT LeftToe_End
					{
						OFFSET 4.510700 0.695400 19.974600
						CHANNELS 3 Xrotation Yrotation Zrotation
						End Site
						{
							OFFSET 0.000000 0.000000 0.000000
						}
					}
				}
			}
		}
	}
	JOINT RightUpLeg
	{
		OFFSET -11.333700 -6.187798 -0.413800
		CHANNELS 3 Xrotation Yrotation Zrotation
		JOINT RightLeg
		{
			OFFSET -0.430392 -32.302628 3.733000
			CHANNELS 3 Xrotation Yrotation Zrotation
			JOINT RightFoot
			{
				OFFSET 0.430392 -48.264973 -6.423500
				CHANNELS 3 Xrotation Yrotation Zrotation
				JOINT RightToeBase
				{
					OFFSET -4.230900 -16.068199 23.438400
					CHANNELS 3 Xrotation Yrotation Zrotation
					JOINT RightToe_End
					{
						OFFSET -4.510700 0.695400 19.974600
						CHANNELS 3 Xrotation Yrotation Zrotation
						End Site
						{
							OFFSET 0.000000 0.000000 0.000000
						}
					}
				}
			}
		}
	}
}
MOTION
Frames: 6
Frame Time: 0.016667
3.816049 89.793556 -0.596494 7.699636 -10.397255 1.585521 7.618360 1.544798 -2.442314 6.431362 1.228089 -0.932161 0.000000 0.000000 0.000000 6.450697 1.172315 -0.845379 -3.222594 -0.333305 -1.041938 -12.897084 -4.165313 4.309511 -0.000001 -0.000000 0.000000 5.349774 -35.475907 4.326027 0.000000 0.000000 0.000000 -77.161200 -31.121340 -22.573239 0.000018 -27.636911 0.000006 -131.009817 7.371636 18.178612 39.578726 -17.197330 -21.086423 11.236002 23.988446 2.901705 3.118801 9.520993 4.222312 -0.000001 0.000001 -0.000001 3.600021 6.051847 -61.463479 4.128147 6.308894 -66.366189 0.000000 -0.000001 0.000002 2.451423 5.270983 -49.859923 3.793760 6.152675 -63.285937 -0.000002 0.000001 -0.000002 2.452896 5.272238 -49.876053 3.792039 6.151808 -63.269777 0.000002 -0.000000 -0.000000 7.187305 7.991507 -61.391776 4.144317 2.228343 -66.583211 0.000001 0.000001 -0.000002 3.654526 31.100433 -18.637124 0.000000 0.000000 0.000000 -34.428982 31.033105 9.535798 -0.000001 29.388258 0.000002 8.244902 12.377326 -3.343644 29.376439 16.962625 20.541343 9.559519 -25.704469 -5.659322 1.488516 -8.233519 -5.339835 -0.000002 0.000000 -0.000000 2.155492 -5.036565 46.317162 4.033411 -6.309979 65.142902 -0.000000 -0.000000 -0.000001 1.448234 -4.252503 37.599696 3.476848 -6.022578 59.964792 -0.000001 0.000000 0.000001 1.448242 -4.252503 37.599700 3.476834 -6.022582 59.964799 -0.000000 -0.000000 -0.000000 2.155493 -5.036568 46.317162 4.033411 -6.309980 65.142909 0.000001 -0.000001 0.000002 -54.426123 3.130055 18.470114 41.741981 6.019621 5.106904 8.497175 -0.406088 -14.843866 -1.160281 0.000002 0.000003 0.000000 0.000001 -0.000000 -30.942560 -0.940690 -29.555058 36.221511 -2.800332 -1.749871 -6.216352 -3.041248 27.858962 -0.271498 0.000042 0.000004 -0.000000 -0.000001 0.000000 
3.937003 89.649162 -0.529435 7.773909 -9.980284 1.363608 7.622896 1.400439 -2.505954 6.424125 1.146838 -0.979023 0.000000 0.000000 0.000000 6.443376 1.089224 -0.899068 -3.752346 -0.436695 -0.755376 -12.941242 -4.384517 4.621761 -0.000000 0.000000 0.000000 5.326301 -35.461031 4.512445 0.000000 0.000000 0.000000 -76.482095 -31.696927 -21.754417 -0.000006 -27.909746 0.000007 -131.195489 7.258877 17.612963 39.578730 -17.197332 -21.086421 11.236007 23.988442 2.901706 3.118800 9.520993 4.222315 -0.000002 -0.000000 0.000001 3.600021 6.051846 -61.463479 4.128147 6.308894 -66.366189 -0.000002 -0.000001 0.000003 2.451423 5.270984 -49.859923 3.793758 6.152678 -63.285937 0.000004 0.000000 -0.000001 2.452895 5.272237 -49.876060 3.792038 6.151808 -63.269777 -0.000002 -0.000002 0.000002 7.187303 7.991507 -61.391776 4.144318 2.228340 -66.583218 -0.000000 -0.000000 -0.000000 3.490731 30.381337 -18.452924 0.000000 0.000000 0.000000 -35.039929 31.378080 10.047775 0.000002 29.551565 -0.000001 7.728507 12.424326 -3.658104 29.376442 16.962628 20.541345 9.559519 -25.704471 -5.659324 1.488508 -8.233521 -5.339834 -0.000001 -0.000000 -0.000000 2.155492 -5.036564 46.317166 4.033412 -6.309979 65.142909 0.000000 0.000000 0.000001 1.448234 -4.252503 37.599696 3.476847 -6.022579 59.964785 0.000001 0.000001 -0.000000 1.448243 -4.252502 37.599703 3.476835 -6.022582 59.964799 -0.000000 0.000000 -0.000000 2.155494 -5.036567 46.317166 4.033411 -6.309979 65.142909 -0.000000 0.000001 0.000003 -54.976654 2.793706 18.484840 42.339752 5.726468 4.880921 8.265445 -0.362459 -14.622096 -1.105303 -0.000001 0.000006 0.000000 0.000000 -0.000000 -30.906961 -1.248972 -29.584251 36.331579 -2.911056 -1.784692 -6.421284 -3.105642 27.970610 -0.225717 -0.000030 0.000001 -0.000000 -0.000001 0.000000 
4.074304 89.483604 -0.444187 7.722616 -9.628386 1.252377 7.640855 1.291289 -2.580266 6.433795 1.091086 -1.028593 0.000000 0.000000 0.000000 6.452328 1.034178 -0.954309 -4.162271 -0.548713 -0.475729 -12.750508 -4.641915 4.905307 0.000001 -0.000000 -0.000000 5.318303 -35.463691 4.617410 0.000000 0.000000 0.000000 -75.973164 -32.528076 -21.224043 -0.000000 -27.688211 0.000003 -131.101725 6.992736 16.947894 39.578730 -17.197330 -21.086425 11.236001 23.988442 2.901700 3.118804 9.520993 4.222317 -0.000002 0.000001 0.000001 3.600021 6.051846 -61.463479 4.128148 6.308893 -66.366196 0.000000 -0.000000 0.000004 2.451423 5.270984 -49.859927 3.793759 6.152678 -63.285937 0.000000 0.000002 -0.000001 2.452895 5.272237 -49.876063 3.792040 6.151807 -63.269770 0.000000 -0.000000 -0.000000 7.187304 7.991508 -61.391769 4.144318 2.228340 -66.583218 -0.000000 0.000001 0.000000 3.343510 29.595681 -18.253983 0.000000 0.000000 0.000000 -35.737609 31.911293 10.742124 0.000002 29.323402 -0.000001 7.359821 12.604403 -3.966191 29.376442 16.962628 20.541343 9.559523 -25.704469 -5.659323 1.488513 -8.233520 -5.339835 -0.000006 0.000000 0.000000 2.155492 -5.036566 46.317166 4.033412 -6.309979 65.142902 -0.000000 0.000001 -0.000002 1.448234 -4.252502 37.599696 3.476848 -6.022578 59.964792 -0.000000 0.000000 0.000000 1.448243 -4.252501 37.599700 3.476834 -6.022581 59.964799 0.000000 -0.000000 0.000000 2.155494 -5.036569 46.317162 4.033412 -6.309981 65.142902 -0.000001 -0.000000 0.000001 -55.397964 2.577675 18.365317 42.983313 5.507283 4.766333 8.022292 -0.321875 -14.454946 -1.081819 0.000005 0.000001 -0.000000 -0.000000 0.000000 -30.811188 -1.434156 -29.772299 36.540959 -2.955392 -1.777801 -6.665982 -3.179233 28.064303 -0.183034 0.000000 -0.000000 -0.000000 0.000000 0.000000 
4.215756 89.318062 -0.355466 7.603377 -9.473072 1.246151 7.673721 1.219954 -2.664061 6.458407 1.059676 -1.078916 0.000000 0.000000 0.000000 6.476069 1.004668 -1.008483 -4.451151 -0.648959 -0.252693 -12.418156 -4.890462 5.127134 0.000001 0.000001 -0.000000 5.324658 -35.494454 4.670772 0.000000 0.000000 0.000000 -75.597777 -33.466544 -20.902985 0.000013 -27.148701 0.000015 -130.986568 6.692506 16.411317 39.578726 -17.197330 -21.086423 11.236003 23.988444 2.901703 3.118801 9.520995 4.222314 -0.000002 0.000001 0.000001 3.600021 6.051844 -61.463479 4.128146 6.308895 -66.366189 -0.000001 0.000000 0.000002 2.451423 5.270982 -49.859927 3.793759 6.152675 -63.285931 0.000001 0.000001 -0.000003 2.452896 5.272235 -49.876060 3.792038 6.151809 -63.269770 0.000000 0.000001 -0.000001 7.187304 7.991506 -61.391776 4.144319 2.228341 -66.583218 0.000001 -0.000000 0.000002 3.228993 28.899347 -18.100981 0.000000 0.000000 0.000000 -36.415259 32.483079 11.481575 0.000001 28.812644 -0.000002 7.126546 12.795559 -4.183793 29.376442 16.962626 20.541343 9.559526 -25.704466 -5.659323 1.488511 -8.233519 -5.339834 0.000004 -0.000000 -0.000000 2.155493 -5.036564 46.317162 4.033410 -6.309978 65.142909 0.000001 0.000001 -0.000001 1.448235 -4.252501 37.599700 3.476847 -6.022577 59.964792 0.000000 -0.000000 0.000000 1.448243 -4.252500 37.599700 3.476834 -6.022583 59.964799 0.000000 0.000000 0.000000 2.155494 -5.036566 46.317159 4.033412 -6.309980 65.142909 -0.000000 0.000000 0.000004 -55.757426 2.688628 18.217156 43.612373 5.278295 4.887840 7.781505 -0.286952 -14.356839 -1.090898 0.000001 0.000000 -0.000000 -0.000000 0.000000 -30.724967 -1.415609 -29.991876 36.795581 -2.947246 -1.781192 -6.874659 -3.244605 28.161193 -0.161691 -0.000002 0.000007 0.000000 0.000003 -0.000000 
4.344892 89.158272 -0.281707 7.519753 -9.482145 1.172529 7.720167 1.185073 -2.754404 6.493214 1.049443 -1.127364 0.000000 0.000000 0.000000 6.510265 0.996294 -1.058785 -4.634162 -0.722704 -0.109982 -12.058769 -5.086247 5.266007 0.000000 -0.000000 -0.000000 5.340329 -35.549526 4.695817 0.000000 0.000000 0.000000 -75.314891 -34.349633 -20.711814 -0.000000 -26.522321 0.000001 -131.014558 6.478415 16.142061 39.578730 -17.197330 -21.086423 11.236002 23.988442 2.901703 3.118805 9.520997 4.222314 0.000000 -0.000000 0.000002 3.600021 6.051848 -61.463479 4.128146 6.308894 -66.366189 -0.000000 0.000000 0.000002 2.451422 5.270985 -49.859923 3.793759 6.152678 -63.285937 0.000001 0.000000 -0.000000 2.452895 5.272236 -49.876060 3.792038 6.151807 -63.269770 0.000001 -0.000000 -0.000002 7.187303 7.991507 -61.391776 4.144318 2.228341 -66.583211 -0.000003 0.000001 -0.000002 3.150976 28.391005 -18.024832 0.000000 0.000000 0.000000 -36.963252 32.955881 12.147688 0.000000 28.192804 -0.000002 6.986300 12.928180 -4.277642 29.376435 16.962623 20.541343 9.559524 -25.704469 -5.659323 1.488516 -8.233520 -5.339834 0.000000 -0.000000 -0.000000 2.155492 -5.036565 46.317162 4.033411 -6.309979 65.142909 0.000001 0.000001 0.000003 1.448234 -4.252504 37.599693 3.476848 -6.022578 59.964799 0.000001 0.000002 -0.000001 1.448243 -4.252501 37.599703 3.476835 -6.022581 59.964799 -0.000001 0.000001 0.000000 2.155494 -5.036569 46.317162 4.033412 -6.309980 65.142909 0.000000 -0.000001 0.000004 -56.183357 2.869482 18.181084 44.247861 5.057201 5.164922 7.568026 -0.260460 -14.332061 -1.124414 0.000000 0.000006 -0.000000 0.000001 -0.000000 -30.740684 -1.364472 -29.973783 37.026749 -2.925742 -1.928926 -7.004491 -3.289481 28.271087 -0.157209 0.000010 0.000004 -0.000000 0.000000 0.000000 
4.469839 89.025414 -0.202586 7.424084 -9.510786 1.125410 7.776511 1.182883 -2.843837 6.532550 1.056137 -1.171396 0.000000 0.000000 0.000000 6.549424 1.004022 -1.102939 -4.736997 -0.764132 -0.043795 -11.772138 -5.200625 5.319873 0.000000 0.000000 0.000000 5.359594 -35.619040 4.708701 0.000000 0.000000 0.000000 -75.090021 -35.051325 -20.583950 0.000003 -26.003784 0.000027 -131.235200 6.425938 16.175105 39.578726 -17.197329 -21.086423 11.236000 23.988442 2.901704 3.118803 9.520995 4.222315 -0.000001 -0.000000 0.000001 3.600022 6.051846 -61.463486 4.128148 6.308893 -66.366196 -0.000000 0.000001 -0.000000 2.451423 5.270982 -49.859927 3.793759 6.152677 -63.285937 -0.000001 0.000001 0.000000 2.452896 5.272235 -49.876063 3.792039 6.151807 -63.269770 0.000001 0.000000 -0.000000 7.187305 7.991507 -61.391776 4.144318 2.228341 -66.583218 -0.000000 -0.000000 -0.000001 3.105982 28.105019 -18.032306 0.000000 0.000000 0.000000 -37.301647 33.244771 12.665266 0.000001 27.625170 -0.000001 6.887808 12.988411 -4.257107 29.376442 16.962630 20.541343 9.559517 -25.704468 -5.659324 1.488512 -8.233519 -5.339833 -0.000001 0.000000 -0.000000 2.155493 -5.036566 46.317166 4.033410 -6.309978 65.142909 -0.000000 -0.000000 0.000000 1.448234 -4.252503 37.599693 3.476846 -6.022578 59.964792 0.000000 0.000001 -0.000000 1.448243 -4.252502 37.599703 3.476835 -6.022582 59.964799 0.000000 0.000000 -0.000000 2.155494 -5.036568 46.317159 4.033412 -6.309980 65.142909 -0.000000 -0.000001 0.000001 -56.519467 3.068443 18.093709 44.793538 4.892964 5.484680 7.393862 -0.241378 -14.338297 -1.177485 -0.000006 -0.000005 -0.000000 0.000001 -0.000000 -30.746807 -1.366232 -29.934759 37.188802 -2.870908 -2.161141 -7.096471 -3.326049 28.399319 -0.158367 0.000003 -0.000002 0.000000 0.000001 -0.000000 
